<?xml version="1.0" encoding="UTF-8" standalone="no"?><!DOCTYPE svg PUBLIC "-//W3C//DTD SVG 1.1//EN" "http://www.w3.org/Graphics/SVG/1.1/DTD/svg11.dtd"><svg width="100%" height="100%" viewBox="0 0 154 204" version="1.1" xmlns="http://www.w3.org/2000/svg" xmlns:xlink="http://www.w3.org/1999/xlink" xml:space="preserve" xmlns:serif="http://www.serif.com/" style="fill-rule:evenodd;clip-rule:evenodd;"><rect id="Artboard1" x="0" y="0" width="153.96676006" height="203.3701465" style="fill:none;"/><clipPath id="_clip1"><rect x="0" y="0" width="153.96676006" height="203.3701465"/></clipPath><g clip-path="url(#_clip1)"><clipPath id="_clip2"><rect x="0.07050492" y="0.02457132" width="154.99720386" height="203.99878978"/></clipPath><g clip-path="url(#_clip2)"><path id="path11821" d="M0.64034758,0.64400084l153.24968637,0l0,122.48186447c0,44.02079148 -34.30452821,79.69993204 -76.62484318,79.69993204c-42.32031498,0 -76.62484318,-35.67914056 -76.62484318,-79.69993204l-0,-122.48186447Z" style="fill:#16a74e;fill-rule:nonzero;stroke:#000;stroke-width:1.19px;"/><g id="g14981"></g></g><g><path d="M19.60123163,38.04510296l0,-22.47066803c0,-1.16730743 0.26588669,-2.042788 0.79766008,-2.62644172c0.53177338,-0.58365371 1.21918776,-0.87548057 2.06224313,-0.87548057c0.86899553,0 1.57262251,0.28858434 2.11088094,0.86575301c0.53825843,0.57716867 0.80738764,1.45589177 0.80738764,2.63616928l0,22.47066803c0,1.18027751 -0.26912921,2.06224313 -0.80738764,2.64589684c-0.53825843,0.58365371 -1.2418854,0.87548057 -2.11088094,0.87548057c-0.83008528,0 -1.51425714,-0.29506938 -2.05251556,-0.88520813c-0.53825843,-0.59013876 -0.80738764,-1.46886185 -0.80738764,-2.63616928Z" style="fill:#5a00ff;fill-rule:nonzero;"/><path d="M63.47253587,32.51984779c0,1.72502098 -0.44422533,3.27494585 -1.33267598,4.6497746c-0.88845066,1.37482875 -2.18870143,2.4513456 -3.90075233,3.22955056c-1.7120509,0.77820495 -3.74186882,1.16730743 -6.08945376,1.16730743c-2.81450791,0 -5.13615269,-0.53177338 -6.96493433,-1.59532015c-1.29700826,-0.76523487 -2.35082746,-1.78662887 -3.16145762,-3.064182c-0.81063016,-1.27755313 -1.21594524,-2.51943854 -1.21594524,-3.72565621c0,-0.70038446 0.24318905,-1.30025078 0.72956714,-1.79959895c0.4863781,-0.49934818 1.10569954,-0.74902227 1.85796433,-0.74902227c0.60959388,0 1.12515466,0.19455124 1.54668234,0.58365371c0.42152768,0.38910248 0.78144747,0.96627115 1.07975937,1.73150602c0.36316231,0.90790578 0.75550731,1.66665561 1.17703499,2.27624949c0.42152768,0.60959388 1.01490896,1.11218458 1.78014383,1.5077721c0.76523487,0.39558752 1.77041627,0.59338128 3.01554419,0.59338128c1.7120509,0 3.10309225,-0.39883004 4.17312406,-1.19649012c1.07003181,-0.79766008 1.60504772,-1.79311391 1.60504772,-2.98636151c0,-0.94681603 -0.28858434,-1.71529342 -0.86575301,-2.30543217c-0.57716867,-0.59013876 -1.32294842,-1.04084913 -2.23733924,-1.35213111c-0.91439082,-0.31128198 -2.1368211,-0.64201909 -3.66729084,-0.99221132c-2.04927304,-0.47989305 -3.76456646,-1.04084913 -5.14588025,-1.68286821c-1.38131379,-0.64201909 -2.47728577,-1.51749966 -3.28791593,-2.62644172c-0.81063016,-1.10894206 -1.21594524,-2.48701333 -1.21594524,-4.13421381c0,-1.56937999 0.42801272,-2.96366386 1.28403817,-4.18285162c0.85602545,-1.21918776 2.09466833,-2.15627622 3.71592865,-2.81126539c1.62126032,-0.65498917 3.52786245,-0.98248375 5.71980641,-0.98248375c1.75096114,0 3.26521828,0.21724888 4.54277141,0.65174665c1.27755313,0.43449777 2.33785738,1.01166644 3.18091275,1.73150602c0.84305537,0.71983958 1.45913429,1.47534689 1.84823676,2.26652193c0.38910248,0.79117504 0.58365371,1.56289495 0.58365371,2.31515974c0,0.68741438 -0.24318905,1.30673582 -0.72956714,1.85796433c-0.4863781,0.55122851 -1.09272946,0.82684276 -1.81905408,0.82684276c-0.66147421,0 -1.16406491,-0.16536855 -1.5077721,-0.49610566c-0.34370719,-0.33073711 -0.71659706,-0.87223805 -1.11866962,-1.62450284c-0.5188033,-1.07651685 -1.14136726,-1.9163297 -1.86769189,-2.51943854c-0.72632462,-0.60310884 -1.89363205,-0.90466326 -3.50192229,-0.90466326c-1.49155949,0 -2.69453465,0.32749458 -3.60892547,0.98248375c-0.91439082,0.65498917 -1.37158623,1.44292168 -1.37158623,2.36379755c0,0.57068363 0.15564099,1.06354677 0.46692297,1.47858941c0.31128198,0.41504264 0.73929471,0.77171991 1.28403817,1.07003181c0.54474347,0.2983119 1.09597198,0.53177338 1.65368553,0.70038446c0.55771355,0.16861107 1.47858941,0.41504264 2.76262758,0.73929471c1.60829024,0.37613239 3.064182,0.79117504 4.3676753,1.24512793c1.3034933,0.45395289 2.41243536,1.0051814 3.32682618,1.65368553c0.91439082,0.64850413 1.62774536,1.46886185 2.14006362,2.46107316c0.51231826,0.99221132 0.76847739,2.20815655 0.76847739,3.64783572Z" style="fill:#5a00ff;fill-rule:nonzero;"/><path d="M96.58515663,37.85055172l-1.36185867,-3.57974279l-11.5952538,0l-1.36185867,3.65756328c-0.53177338,1.42670908 -0.98572627,2.38973771 -1.36185867,2.88908589c-0.37613239,0.49934818 -0.99221132,0.74902227 -1.84823676,0.74902227c-0.72632462,0 -1.36834371,-0.26588669 -1.92605726,-0.79766008c-0.55771355,-0.53177338 -0.83657032,-1.13488222 -0.83657032,-1.80932652c0,-0.38910248 0.06485041,-0.79117504 0.19455124,-1.20621768c0.12970083,-0.41504264 0.34370719,-0.99221132 0.64201909,-1.73150602l7.29567144,-18.52127789c0.20752132,-0.53177338 0.45719541,-1.17054995 0.74902227,-1.9163297c0.29182686,-0.74577975 0.60310884,-1.36510119 0.93384594,-1.85796433c0.33073711,-0.49286314 0.76523487,-0.89169318 1.3034933,-1.19649012c0.53825843,-0.30479694 1.20297516,-0.45719541 1.99415019,-0.45719541c0.80414512,0 1.47534689,0.15239847 2.01360532,0.45719541c0.53825843,0.30479694 0.97275619,0.69714194 1.3034933,1.17703499c0.33073711,0.47989305 0.60959388,0.99545384 0.83657032,1.54668234c0.22697644,0.55122851 0.51556078,1.28728069 0.86575301,2.20815655l7.45131243,18.40454715c0.58365371,1.40076892 0.87548057,2.4189204 0.87548057,3.05445444c0,0.66147421 -0.27561425,1.26782557 -0.82684276,1.81905408c-0.55122851,0.55122851 -1.21594524,0.82684276 -1.99415019,0.82684276c-0.45395289,0 -0.84305537,-0.08106302 -1.16730743,-0.24318905c-0.32425206,-0.16212603 -0.5966238,-0.38261744 -0.8171152,-0.66147421c-0.2204914,-0.27885677 -0.45719541,-0.7068695 -0.71011202,-1.28403817c-0.25291661,-0.57716867 -0.47016549,-1.08624441 -0.65174665,-1.52722722Zm-11.43961281,-7.9182354l8.52134424,0l-4.29958237,-11.77034992l-4.22176187,11.77034992Z" style="fill:#5a00ff;fill-rule:nonzero;"/><path d="M129.1335788,41.08010228l-8.71589548,0c-1.25809801,0 -2.15627622,-0.2820993 -2.69453465,-0.84629789c-0.53825843,-0.56419859 -0.80738764,-1.46237681 -0.80738764,-2.69453465l0,-21.43954646c0,-1.25809801 0.27561425,-2.16276127 0.82684276,-2.71398977c0.55122851,-0.55122851 1.44292168,-0.82684276 2.67507953,-0.82684276l9.24118382,0c1.36185867,0 2.54213618,0.08430554 3.54083254,0.25291661c0.99869636,0.16861107 1.89363205,0.49286314 2.68480709,0.97275619c0.67444429,0.40207256 1.27106809,0.9111483 1.78987139,1.52722722c0.5188033,0.61607892 0.91439082,1.29700826 1.18676255,2.042788c0.27237173,0.74577975 0.4085576,1.53371226 0.4085576,2.36379755c0,2.85341816 -1.42670908,4.94160145 -4.28012724,6.26454987c3.74835386,1.1932476 5.62253079,3.51489237 5.62253079,6.96493433c0,1.59532015 -0.4085576,3.0317568 -1.2256728,4.30930993c-0.8171152,1.27755313 -1.91957222,2.22112664 -3.30737105,2.83072052c-0.86899553,0.36316231 -1.86769189,0.61932144 -2.99608907,0.76847739c-1.12839718,0.14915595 -2.44486056,0.22373392 -3.94939014,0.22373392Zm-0.42801272,-12.66528561l-6.01163326,0l0,8.326793l6.2061845,0c3.90399485,0 5.85599227,-1.40725396 5.85599227,-4.22176187c0,-1.43967916 -0.50583322,-2.48377081 -1.51749966,-3.13227494c-1.01166644,-0.64850413 -2.52268106,-0.97275619 -4.53304385,-0.97275619Zm-6.01163326,-11.51743331l0,7.37349193l5.29179368,0c1.43967916,0 2.55186374,-0.13618587 3.33655374,-0.4085576c0.78468999,-0.27237173 1.38455631,-0.79117504 1.79959895,-1.55640991c0.32425206,-0.54474347 0.4863781,-1.15433735 0.4863781,-1.82878164c0,-1.43967916 -0.51231826,-2.39622275 -1.53695478,-2.86963077c-1.02463652,-0.47340801 -2.58753147,-0.71011202 -4.68868484,-0.71011202l-4.68868484,0Z" style="fill:#5a00ff;fill-rule:nonzero;"/></g><g><path d="M18.40123163,36.36510296l0,-22.47066803c0,-1.16730743 0.26588669,-2.042788 0.79766008,-2.62644172c0.53177338,-0.58365371 1.21918776,-0.87548057 2.06224313,-0.87548057c0.86899553,0 1.57262251,0.28858434 2.11088094,0.86575301c0.53825843,0.57716867 0.80738764,1.45589177 0.80738764,2.63616928l0,22.47066803c0,1.18027751 -0.26912921,2.06224313 -0.80738764,2.64589684c-0.53825843,0.58365371 -1.2418854,0.87548057 -2.11088094,0.87548057c-0.83008528,0 -1.51425714,-0.29506938 -2.05251556,-0.88520813c-0.53825843,-0.59013876 -0.80738764,-1.46886185 -0.80738764,-2.63616928Z" style="fill:#ffd100;fill-rule:nonzero;"/><path d="M62.27253587,30.83984779c0,1.72502098 -0.44422533,3.27494585 -1.33267598,4.6497746c-0.88845066,1.37482875 -2.18870143,2.4513456 -3.90075233,3.22955056c-1.7120509,0.77820495 -3.74186882,1.16730743 -6.08945376,1.16730743c-2.81450791,0 -5.13615269,-0.53177338 -6.96493433,-1.59532015c-1.29700826,-0.76523487 -2.35082746,-1.78662887 -3.16145762,-3.064182c-0.81063016,-1.27755313 -1.21594524,-2.51943854 -1.21594524,-3.72565621c0,-0.70038446 0.24318905,-1.30025078 0.72956714,-1.79959895c0.4863781,-0.49934818 1.10569954,-0.74902227 1.85796433,-0.74902227c0.60959388,0 1.12515466,0.19455124 1.54668234,0.58365371c0.42152768,0.38910248 0.78144747,0.96627115 1.07975937,1.73150602c0.36316231,0.90790578 0.75550731,1.66665561 1.17703499,2.27624949c0.42152768,0.60959388 1.01490896,1.11218458 1.78014383,1.5077721c0.76523487,0.39558752 1.77041627,0.59338128 3.01554419,0.59338128c1.7120509,0 3.10309225,-0.39883004 4.17312406,-1.19649012c1.07003181,-0.79766008 1.60504772,-1.79311391 1.60504772,-2.98636151c0,-0.94681603 -0.28858434,-1.71529342 -0.86575301,-2.30543217c-0.57716867,-0.59013876 -1.32294842,-1.04084913 -2.23733924,-1.35213111c-0.91439082,-0.31128198 -2.1368211,-0.64201909 -3.66729084,-0.99221132c-2.04927304,-0.47989305 -3.76456646,-1.04084913 -5.14588025,-1.68286821c-1.38131379,-0.64201909 -2.47728577,-1.51749966 -3.28791593,-2.62644172c-0.81063016,-1.10894206 -1.21594524,-2.48701333 -1.21594524,-4.13421381c0,-1.56937999 0.42801272,-2.96366386 1.28403817,-4.18285162c0.85602545,-1.21918776 2.09466833,-2.15627622 3.71592865,-2.81126539c1.62126032,-0.65498917 3.52786245,-0.98248375 5.71980641,-0.98248375c1.75096114,0 3.26521828,0.21724888 4.54277141,0.65174665c1.27755313,0.43449777 2.33785738,1.01166644 3.18091275,1.73150602c0.84305537,0.71983958 1.45913429,1.47534689 1.84823676,2.26652193c0.38910248,0.79117504 0.58365371,1.56289495 0.58365371,2.31515974c0,0.68741438 -0.24318905,1.30673582 -0.72956714,1.85796433c-0.4863781,0.55122851 -1.09272946,0.82684276 -1.81905408,0.82684276c-0.66147421,0 -1.16406491,-0.16536855 -1.5077721,-0.49610566c-0.34370719,-0.33073711 -0.71659706,-0.87223805 -1.11866962,-1.62450284c-0.5188033,-1.07651685 -1.14136726,-1.9163297 -1.86769189,-2.51943854c-0.72632462,-0.60310884 -1.89363205,-0.90466326 -3.50192229,-0.90466326c-1.49155949,0 -2.69453465,0.32749458 -3.60892547,0.98248375c-0.91439082,0.65498917 -1.37158623,1.44292168 -1.37158623,2.36379755c0,0.57068363 0.15564099,1.06354677 0.46692297,1.47858941c0.31128198,0.41504264 0.73929471,0.77171991 1.28403817,1.07003181c0.54474347,0.2983119 1.09597198,0.53177338 1.65368553,0.70038446c0.55771355,0.16861107 1.47858941,0.41504264 2.76262758,0.73929471c1.60829024,0.37613239 3.064182,0.79117504 4.3676753,1.24512793c1.3034933,0.45395289 2.41243536,1.0051814 3.32682618,1.65368553c0.91439082,0.64850413 1.62774536,1.46886185 2.14006362,2.46107316c0.51231826,0.99221132 0.76847739,2.20815655 0.76847739,3.64783572Z" style="fill:#ffd100;fill-rule:nonzero;"/><path d="M95.38515663,36.17055172l-1.36185867,-3.57974279l-11.5952538,0l-1.36185867,3.65756328c-0.53177338,1.42670908 -0.98572627,2.38973771 -1.36185867,2.88908589c-0.37613239,0.49934818 -0.99221132,0.74902227 -1.84823676,0.74902227c-0.72632462,0 -1.36834371,-0.26588669 -1.92605726,-0.79766008c-0.55771355,-0.53177338 -0.83657032,-1.13488222 -0.83657032,-1.80932652c0,-0.38910248 0.06485041,-0.79117504 0.19455124,-1.20621768c0.12970083,-0.41504264 0.34370719,-0.99221132 0.64201909,-1.73150602l7.29567144,-18.52127789c0.20752132,-0.53177338 0.45719541,-1.17054995 0.74902227,-1.9163297c0.29182686,-0.74577975 0.60310884,-1.36510119 0.93384594,-1.85796433c0.33073711,-0.49286314 0.76523487,-0.89169318 1.3034933,-1.19649012c0.53825843,-0.30479694 1.20297516,-0.45719541 1.99415019,-0.45719541c0.80414512,0 1.47534689,0.15239847 2.01360532,0.45719541c0.53825843,0.30479694 0.97275619,0.69714194 1.3034933,1.17703499c0.33073711,0.47989305 0.60959388,0.99545384 0.83657032,1.54668234c0.22697644,0.55122851 0.51556078,1.28728069 0.86575301,2.20815655l7.45131243,18.40454715c0.58365371,1.40076892 0.87548057,2.4189204 0.87548057,3.05445444c0,0.66147421 -0.27561425,1.26782557 -0.82684276,1.81905408c-0.55122851,0.55122851 -1.21594524,0.82684276 -1.99415019,0.82684276c-0.45395289,0 -0.84305537,-0.08106302 -1.16730743,-0.24318905c-0.32425206,-0.16212603 -0.5966238,-0.38261744 -0.8171152,-0.66147421c-0.2204914,-0.27885677 -0.45719541,-0.7068695 -0.71011202,-1.28403817c-0.25291661,-0.57716867 -0.47016549,-1.08624441 -0.65174665,-1.52722722Zm-11.43961281,-7.9182354l8.52134424,0l-4.29958237,-11.77034992l-4.22176187,11.77034992Z" style="fill:#ffd100;fill-rule:nonzero;"/><path d="M127.9335788,39.40010228l-8.71589548,0c-1.25809801,0 -2.15627622,-0.2820993 -2.69453465,-0.84629789c-0.53825843,-0.56419859 -0.80738764,-1.46237681 -0.80738764,-2.69453465l0,-21.43954646c0,-1.25809801 0.27561425,-2.16276127 0.82684276,-2.71398977c0.55122851,-0.55122851 1.44292168,-0.82684276 2.67507953,-0.82684276l9.24118382,0c1.36185867,0 2.54213618,0.08430554 3.54083254,0.25291661c0.99869636,0.16861107 1.89363205,0.49286314 2.68480709,0.97275619c0.67444429,0.40207256 1.27106809,0.9111483 1.78987139,1.52722722c0.5188033,0.61607892 0.91439082,1.29700826 1.18676255,2.042788c0.27237173,0.74577975 0.4085576,1.53371226 0.4085576,2.36379755c0,2.85341816 -1.42670908,4.94160145 -4.28012724,6.26454987c3.74835386,1.1932476 5.62253079,3.51489237 5.62253079,6.96493433c0,1.59532015 -0.4085576,3.0317568 -1.2256728,4.30930993c-0.8171152,1.27755313 -1.91957222,2.22112664 -3.30737105,2.83072052c-0.86899553,0.36316231 -1.86769189,0.61932144 -2.99608907,0.76847739c-1.12839718,0.14915595 -2.44486056,0.22373392 -3.94939014,0.22373392Zm-0.42801272,-12.66528561l-6.01163326,0l0,8.326793l6.2061845,0c3.90399485,0 5.85599227,-1.40725396 5.85599227,-4.22176187c0,-1.43967916 -0.50583322,-2.48377081 -1.51749966,-3.13227494c-1.01166644,-0.64850413 -2.52268106,-0.97275619 -4.53304385,-0.97275619Zm-6.01163326,-11.51743331l0,7.37349193l5.29179368,0c1.43967916,0 2.55186374,-0.13618587 3.33655374,-0.4085576c0.78468999,-0.27237173 1.38455631,-0.79117504 1.79959895,-1.55640991c0.32425206,-0.54474347 0.4863781,-1.15433735 0.4863781,-1.82878164c0,-1.43967916 -0.51231826,-2.39622275 -1.53695478,-2.86963077c-1.02463652,-0.47340801 -2.58753147,-0.71011202 -4.68868484,-0.71011202l-4.68868484,0Z" style="fill:#ffd100;fill-rule:nonzero;"/></g><clipPath id="_clip3"><rect x="51.38741742" y="46.80820586" width="51.40337886" height="144.61658947"/></clipPath><g clip-path="url(#_clip3)"><clipPath id="_clip4"><rect x="51.38741742" y="46.80820586" width="94.53438374" height="207.42722574"/></clipPath><g clip-path="url(#_clip4)"><path d="M98.62627264,85.22186145l0,0.08916021c0,3.65845339 -4.48644109,6.23547683 -10.65274007,8.4069565c-13.73024897,-4.5126571 -35.8844811,-6.75604016 -36.04340039,-14.92139262l0,-0.08916021c0,-3.66131514 4.48644109,-6.23545957 10.65274007,-8.40693924c13.73024897,4.51263984 35.88447748,6.75604016 36.04340039,14.92137536Z" style="fill:url(#_Linear5);fill-rule:nonzero;stroke:#282566;stroke-width:0.98px;stroke-miterlimit:10;"/><path d="M99.55474436,132.45377534l0,0.08916021c0,3.66131514 -4.48661809,6.23545957 -10.65274007,8.40693924c-13.73024897,-4.5126571 -35.88447748,-6.75604016 -36.04357378,-14.92139262l0,-0.08916021c0,-3.65843613 4.48661809,-6.23545957 10.65274007,-8.40693924c13.73024897,4.5126571 35.88447748,6.75604016 36.04357378,14.92139262Z" style="fill:url(#_Linear6);fill-rule:nonzero;stroke:#282566;stroke-width:0.98px;stroke-miterlimit:10;"/><path d="M75.4890781,167.08908575c-3.89097598,-0.94517013 -7.72075247,-1.90686079 -11.05383482,-3.00231765c-6.16259639,2.16860065 -10.64903747,4.7456241 -10.64903747,8.40693924l0,0.08916021c0.109532,5.59305163 10.53809306,8.40806381 21.51079214,11.0765455c0.04533069,-5.80433832 0.11376561,-12.79315278 0.19208016,-16.5703273Z" style="fill:url(#_Linear7);fill-rule:nonzero;stroke:#282566;stroke-width:0.98px;stroke-miterlimit:10;"/><path d="M98.62627264,85.31102166l0,16.52628216c0.15891929,8.10206884 -21.543776,10.9149383 -35.11510206,15.69507603c-6.16612199,2.17147967 -10.65274007,4.74850311 -10.65274007,8.40693924l0,-16.5262649c-0.15891929,-8.1020861 21.543776,-10.9149383 35.11510206,-15.69507603c6.16629899,-2.17147967 10.65274007,-4.74850311 10.65274007,-8.4069565Z" style="fill:url(#_Linear8);fill-rule:nonzero;stroke:#282566;stroke-width:0.98px;stroke-miterlimit:10;"/><path d="M99.55387455,131.86253091l0,16.52628216c0.15909629,8.10206884 -21.543599,10.9149383 -35.11863128,15.69795504c-6.16259639,2.16860065 -10.64903747,4.7456241 -10.64903747,8.40693924l0,-16.52628216c-0.15891929,-8.10206884 21.5473016,-10.91492104 35.12233388,-15.69793778c6.16259639,-2.16861791 10.64533487,-4.7456241 10.64533487,-8.4069565Z" style="fill:url(#_Linear9);fill-rule:nonzero;stroke:#282566;stroke-width:0.98px;stroke-miterlimit:10;"/><path d="M75.86140739,66.18164676c-0.02433964,-1.49908801 -0.0486829,-2.99815876 -0.07302254,-4.49724388c-0.05679611,-3.94568157 -0.08060474,-7.89171402 -0.09242417,-11.83779825c-11.78616977,3.176669 -23.88471273,6.27838015 -23.7658285,12.33453854l0,16.52628216c0,-3.66131514 4.48644109,-6.23545957 10.65274007,-8.40693924c3.97969755,-1.40143169 8.65716039,-2.63427005 13.27818113,-3.88064063c0.0008814,-0.07943312 -0.0010584,-0.15874544 0.000354,-0.23819869Z" style="fill:url(#_Linear10);fill-rule:nonzero;stroke:#282566;stroke-width:0.98px;stroke-miterlimit:10;"/></g></g></g><defs><linearGradient id="_Linear5" x1="0" y1="0" x2="1" y2="0" gradientUnits="userSpaceOnUse" gradientTransform="matrix(46.69614,0,0,37.179813,51.930132,82.009232)"><stop offset="0" style="stop-color:#4d4b7e;stop-opacity:1"/><stop offset="1" style="stop-color:#8684b6;stop-opacity:1"/></linearGradient><linearGradient id="_Linear6" x1="0" y1="0" x2="1" y2="0" gradientUnits="userSpaceOnUse" gradientTransform="matrix(46.696314,0,0,37.179952,52.858431,129.241129)"><stop offset="0" style="stop-color:#4d4b7e;stop-opacity:1"/><stop offset="1" style="stop-color:#8684b6;stop-opacity:1"/></linearGradient><linearGradient id="_Linear7" x1="0" y1="0" x2="1" y2="0" gradientUnits="userSpaceOnUse" gradientTransform="matrix(21.702872,0,0,17.279988,53.786206,173.873091)"><stop offset="0" style="stop-color:#4d4b7e;stop-opacity:1"/><stop offset="1" style="stop-color:#8684b6;stop-opacity:1"/></linearGradient><linearGradient id="_Linear8" x1="0" y1="0" x2="1" y2="0" gradientUnits="userSpaceOnUse" gradientTransform="matrix(45.769578,0,0,36.442077,52.857563,105.62517)"><stop offset="0" style="stop-color:#d4dfc1;stop-opacity:1"/><stop offset="1" style="stop-color:#7968b1;stop-opacity:1"/></linearGradient><linearGradient id="_Linear9" x1="0" y1="0" x2="1" y2="0" gradientUnits="userSpaceOnUse" gradientTransform="matrix(45.769406,0,0,36.441941,53.785338,152.178119)"><stop offset="0" style="stop-color:#d4dfc1;stop-opacity:1"/><stop offset="1" style="stop-color:#7968b1;stop-opacity:1"/></linearGradient><linearGradient id="_Linear10" x1="0" y1="0" x2="1" y2="0" gradientUnits="userSpaceOnUse" gradientTransform="matrix(23.932144,0,0,19.054951,51.929263,64.277015)"><stop offset="0" style="stop-color:#d4dfc1;stop-opacity:1"/><stop offset="1" style="stop-color:#7968b1;stop-opacity:1"/></linearGradient></defs></svg>